<svg width="814" height="369" viewBox="0 0 814 369" fill="none" xmlns="http://www.w3.org/2000/svg">
<mask id="mask0_516_95" style="mask-type:alpha" maskUnits="userSpaceOnUse" x="0" y="0" width="814" height="369">
<rect width="814" height="369" fill="#F07676"/>
</mask>
<g mask="url(#mask0_516_95)">
<path d="M37.4424 222.182C38.8096 222.377 39.9814 222.768 40.958 223.354C42.0322 223.842 42.8623 224.77 43.4482 226.137C43.4482 227.992 43.4971 230.58 43.5947 233.9C43.79 237.123 43.9365 240.883 44.0342 245.18C44.2295 249.477 44.4248 254.115 44.6201 259.096C44.8154 264.076 45.0107 269.105 45.2061 274.184C45.4014 279.262 45.5479 284.291 45.6455 289.271C45.8408 294.252 45.9873 298.891 46.085 303.188C46.2803 307.484 46.4268 311.293 46.5244 314.613C46.6221 317.934 46.7197 320.473 46.8174 322.23C46.8174 322.426 46.7686 322.768 46.6709 323.256C46.6709 323.744 46.6221 324.33 46.5244 325.014C46.5244 325.697 46.4756 326.381 46.3779 327.064C46.3779 327.65 46.3779 328.09 46.3779 328.383C46.2803 328.969 46.2314 329.701 46.2314 330.58C46.2314 331.361 46.1338 332.143 45.9385 332.924C45.7432 333.705 45.4014 334.438 44.9131 335.121C44.5225 335.707 43.8389 336.049 42.8623 336.146L40.3721 333.07C40.2744 332.973 40.1279 331.166 39.9326 327.65C39.835 324.037 39.6396 319.398 39.3467 313.734C39.1514 307.973 38.9561 301.527 38.7607 294.398C38.5654 287.172 38.3213 279.896 38.0283 272.572C37.833 265.248 37.6377 258.217 37.4424 251.479C37.2471 244.74 37.1006 238.93 37.0029 234.047C37.0029 233.656 37.0029 232.875 37.0029 231.703C37.1006 230.531 37.1494 229.359 37.1494 228.188C37.2471 226.918 37.2959 225.746 37.2959 224.672C37.3936 223.5 37.4424 222.67 37.4424 222.182ZM56.0459 301.576C56.0459 298.646 56.6807 295.424 57.9502 291.908C59.2197 288.295 60.9287 284.975 63.0771 281.947C65.3232 278.822 67.8135 276.234 70.5479 274.184C73.3799 272.035 76.3096 270.961 79.3369 270.961C80.9971 270.961 82.6084 271.303 84.1709 271.986C85.8311 272.67 87.3936 273.598 88.8584 274.77C90.4209 275.844 91.7881 277.113 92.96 278.578C94.2295 279.945 95.2061 281.41 95.8896 282.973C96.5732 284.535 96.915 286.049 96.915 287.514C97.0127 288.979 96.6221 290.248 95.7432 291.322L64.835 297.035C64.4443 297.133 64.1025 297.621 63.8096 298.5C63.5166 299.281 63.2725 300.307 63.0771 301.576C62.8818 302.846 62.6865 304.262 62.4912 305.824C62.3936 307.289 62.2959 308.754 62.1982 310.219C62.1006 311.586 62.0518 312.855 62.0518 314.027C62.0518 315.102 62.0518 315.932 62.0518 316.518C62.0518 319.252 62.6865 321.498 63.9561 323.256C65.3232 324.916 67.0322 326.186 69.083 327.064C71.1338 327.943 73.4287 328.529 75.9678 328.822C78.6045 329.115 81.1924 329.262 83.7314 329.262C86.2705 329.262 88.6631 329.164 90.9092 328.969C93.1553 328.773 95.0107 328.676 96.4756 328.676C96.4756 329.066 96.3291 329.506 96.0361 329.994C95.7432 330.482 95.4014 330.971 95.0107 331.459C94.6201 331.85 94.2295 332.24 93.8389 332.631C93.4482 332.924 93.2041 333.119 93.1064 333.217C92.3252 333.412 91.1045 333.705 89.4443 334.096C87.8818 334.389 86.1729 334.682 84.3174 334.975C82.5596 335.268 80.8994 335.512 79.3369 335.707C77.7744 335.902 76.7002 336 76.1143 336C73.0869 336.586 70.4502 336.537 68.2041 335.854C65.958 335.17 64.0537 333.998 62.4912 332.338C60.9287 330.678 59.6592 328.676 58.6826 326.332C57.7061 323.891 56.9736 321.303 56.4854 318.568C55.9971 315.834 55.7041 313.002 55.6064 310.072C55.6064 307.143 55.7529 304.311 56.0459 301.576ZM77.2861 276.527C76.4072 276.527 75.2354 277.016 73.7705 277.992C72.4033 278.871 71.085 280.043 69.8154 281.508C68.6436 282.875 67.6182 284.389 66.7393 286.049C65.958 287.611 65.7139 288.979 66.0068 290.15C68.5459 290.443 71.1826 290.395 73.917 290.004C76.6514 289.613 79.1416 289.027 81.3877 288.246C83.6338 287.367 85.4893 286.391 86.9541 285.316C88.4189 284.145 89.1025 282.973 89.0049 281.801C89.0049 280.629 88.0771 279.604 86.2217 278.725C84.4639 277.748 81.4854 277.016 77.2861 276.527ZM104.386 323.402C104.386 317.836 105.899 313.783 108.927 311.244C112.052 308.705 116.104 307.436 121.085 307.436C123.038 307.436 124.845 307.484 126.505 307.582C128.263 307.68 129.923 307.924 131.485 308.314C133.048 308.705 134.562 309.291 136.026 310.072C137.589 310.854 139.2 311.977 140.86 313.441C140.86 313.148 140.86 312.562 140.86 311.684C140.958 310.707 141.007 309.682 141.007 308.607C141.007 307.533 141.007 306.557 141.007 305.678C141.007 304.701 141.007 304.018 141.007 303.627C140.909 301.869 140.86 299.623 140.86 296.889C140.86 294.057 140.616 291.176 140.128 288.246C139.737 285.316 138.858 282.533 137.491 279.896C136.222 277.26 134.122 275.258 131.192 273.891C129.142 273.891 127.237 274.232 125.479 274.916C123.722 275.6 121.964 276.332 120.206 277.113C118.448 277.895 116.69 278.627 114.933 279.311C113.175 279.896 111.271 280.189 109.22 280.189C109.22 277.748 109.952 275.746 111.417 274.184C112.979 272.523 114.835 271.254 116.983 270.375C119.132 269.496 121.378 268.91 123.722 268.617C126.065 268.324 128.116 268.178 129.874 268.178C131.632 268.471 133.243 268.812 134.708 269.203C136.271 269.594 137.687 270.375 138.956 271.547C140.323 272.719 141.544 274.525 142.618 276.967C143.79 279.311 144.767 282.631 145.548 286.928C146.427 291.225 147.159 296.693 147.745 303.334C148.429 309.877 148.966 317.934 149.356 327.504C149.552 328.773 149.112 329.896 148.038 330.873C147.062 331.752 145.694 332.533 143.937 333.217C142.179 333.803 140.177 334.34 137.931 334.828C135.782 335.219 133.585 335.512 131.339 335.707C129.093 335.902 126.944 336.049 124.894 336.146C122.843 336.244 121.134 336.293 119.767 336.293C118.009 336.293 116.202 336 114.347 335.414C112.589 334.828 110.929 333.998 109.366 332.924C107.901 331.752 106.681 330.385 105.704 328.822C104.825 327.162 104.386 325.355 104.386 323.402ZM123.429 313.148C118.546 314.516 115.128 316.176 113.175 318.129C111.222 319.984 110.343 321.791 110.538 323.549C110.831 325.307 112.003 326.918 114.054 328.383C116.104 329.75 118.595 330.678 121.524 331.166C124.454 331.557 127.628 331.312 131.046 330.434C134.464 329.457 137.735 327.602 140.86 324.867C139.688 322.035 138.517 319.887 137.345 318.422C136.173 316.859 134.903 315.688 133.536 314.906C132.169 314.125 130.655 313.637 128.995 313.441C127.335 313.246 125.479 313.148 123.429 313.148ZM154.19 278.871C155.362 278.383 156.388 278.285 157.267 278.578C158.146 278.871 158.878 279.408 159.464 280.189C160.05 280.971 160.489 281.898 160.782 282.973C161.075 283.949 161.319 284.926 161.515 285.902C162.784 283.754 164.591 282.045 166.935 280.775C169.376 279.408 171.964 278.529 174.698 278.139C177.433 277.65 180.167 277.553 182.901 277.846C185.636 278.041 187.931 278.627 189.786 279.604C191.739 280.482 193.106 281.752 193.888 283.412C194.669 284.975 194.474 286.83 193.302 288.979C190.763 287.514 188.077 286.342 185.245 285.463C182.511 284.584 179.825 284.291 177.188 284.584C174.552 284.877 172.11 285.902 169.864 287.66C167.618 289.32 165.763 292.006 164.298 295.717C162.833 299.428 161.905 304.359 161.515 310.512C161.222 316.566 161.661 324.135 162.833 333.217H157.267C157.267 333.217 157.169 332.436 156.974 330.873C156.876 329.213 156.729 327.064 156.534 324.428C156.437 321.791 156.241 318.861 155.948 315.639C155.753 312.416 155.558 309.145 155.362 305.824C155.167 302.504 154.972 299.33 154.776 296.303C154.679 293.178 154.532 290.492 154.337 288.246C154.337 287.953 154.288 287.367 154.19 286.488C154.19 285.609 154.19 284.682 154.19 283.705C154.19 282.631 154.19 281.654 154.19 280.775C154.19 279.896 154.19 279.262 154.19 278.871ZM202.091 335.268C201.896 333.705 201.7 331.459 201.505 328.529C201.407 325.502 201.261 322.133 201.065 318.422C200.968 314.613 200.87 310.658 200.772 306.557C200.675 302.455 200.577 298.549 200.479 294.838C200.382 291.127 200.235 287.807 200.04 284.877C199.942 281.85 199.747 279.555 199.454 277.992C199.454 277.895 199.405 277.65 199.308 277.26C199.308 276.869 199.259 276.43 199.161 275.941C199.161 275.453 199.161 275.062 199.161 274.77C199.161 274.379 199.161 274.086 199.161 273.891C200.626 272.719 201.847 272.328 202.823 272.719C203.897 273.109 204.776 273.988 205.46 275.355C206.144 276.625 206.632 278.236 206.925 280.189C207.218 282.143 207.413 284.096 207.511 286.049C207.706 288.002 207.804 289.809 207.804 291.469C207.804 293.031 207.804 294.154 207.804 294.838C207.999 293.178 208.292 291.225 208.683 288.979C209.073 286.732 209.659 284.438 210.44 282.094C211.222 279.75 212.149 277.455 213.224 275.209C214.396 272.865 215.812 270.814 217.472 269.057C219.132 267.299 220.987 265.932 223.038 264.955C225.187 263.979 227.628 263.588 230.362 263.783C234.659 263.979 238.175 265.15 240.909 267.299C243.741 269.447 245.938 272.328 247.501 275.941C249.161 279.555 250.333 283.705 251.017 288.393C251.798 293.08 252.286 298.061 252.481 303.334C252.774 308.607 252.872 313.979 252.774 319.447C252.677 324.818 252.628 329.994 252.628 334.975C251.749 335.17 250.87 335.512 249.991 336C249.112 336.391 248.38 336.537 247.794 336.439C247.208 336.439 246.769 336.049 246.476 335.268C246.28 334.389 246.378 332.729 246.769 330.287C246.866 328.529 247.013 325.844 247.208 322.23C247.501 318.52 247.599 314.418 247.501 309.926C247.501 305.434 247.257 300.795 246.769 296.01C246.28 291.225 245.353 286.879 243.985 282.973C242.716 278.969 240.86 275.746 238.419 273.305C235.978 270.766 232.804 269.496 228.897 269.496C224.894 271.156 221.524 274.281 218.79 278.871C216.153 283.461 214.005 288.832 212.345 294.984C210.782 301.137 209.61 307.826 208.829 315.053C208.146 322.182 207.755 329.164 207.657 336C207.462 335.902 207.071 335.854 206.485 335.854C205.997 335.854 205.411 335.854 204.728 335.854C204.142 335.756 203.556 335.658 202.97 335.561C202.481 335.463 202.188 335.365 202.091 335.268ZM343.302 334.096L314.737 268.617L318.546 264.662L342.862 319.154L353.995 283.266L382.267 321.938C383.146 317.152 383.683 312.367 383.878 307.582C384.171 302.699 384.269 297.865 384.171 293.08C384.171 288.197 384.122 283.266 384.024 278.285C384.024 273.305 384.171 268.324 384.464 263.344L390.763 265.688C390.763 273.012 390.763 279.213 390.763 284.291C390.763 289.369 390.763 293.666 390.763 297.182C390.763 300.6 390.714 303.383 390.616 305.531C390.616 307.68 390.567 309.535 390.47 311.098C390.47 312.66 390.372 314.125 390.177 315.492C389.981 316.762 389.737 318.227 389.444 319.887C389.151 321.449 388.81 323.402 388.419 325.746C388.028 328.09 387.54 331.166 386.954 334.975C383.927 332.631 380.997 329.701 378.165 326.186C375.333 322.67 372.647 319.154 370.108 315.639C367.667 312.123 365.323 308.9 363.077 305.971C360.831 302.943 358.78 300.746 356.925 299.379L343.302 334.096ZM405.558 279.164C406.729 279.164 407.706 279.115 408.487 279.018C409.366 278.92 410.099 279.408 410.685 280.482C410.978 284.877 411.319 289.369 411.71 293.959C412.101 298.451 412.491 302.992 412.882 307.582C413.272 312.172 413.517 316.811 413.614 321.498C413.81 326.088 413.858 330.58 413.761 334.975C413.761 335.561 413.614 335.902 413.321 336C413.028 336.195 412.589 336.244 412.003 336.146C411.515 336.146 410.88 336.098 410.099 336C409.415 336 408.634 336.098 407.755 336.293L405.558 279.164ZM397.062 252.943C397.062 252.26 397.11 251.527 397.208 250.746C397.306 249.867 397.501 249.086 397.794 248.402C398.185 247.719 398.624 247.133 399.112 246.645C399.698 246.156 400.382 245.912 401.163 245.912C402.335 245.912 403.507 245.961 404.679 246.059C405.851 246.156 406.974 246.4 408.048 246.791C409.122 247.084 410.001 247.621 410.685 248.402C411.368 249.086 411.71 250.111 411.71 251.479C411.71 253.822 410.831 255.922 409.073 257.777C407.315 259.535 405.167 260.414 402.628 260.414C400.675 260.414 399.259 259.682 398.38 258.217C397.501 256.654 397.062 254.896 397.062 252.943ZM405.558 253.676C405.265 253.676 405.118 253.92 405.118 254.408C405.118 254.896 405.265 255.141 405.558 255.141C405.948 255.141 406.144 254.896 406.144 254.408C406.144 253.92 405.948 253.676 405.558 253.676ZM437.784 282.826C436.905 282.533 435.685 282.436 434.122 282.533C432.657 282.533 431.046 282.631 429.288 282.826C427.628 282.924 426.017 283.07 424.454 283.266C422.892 283.461 421.573 283.559 420.499 283.559C420.011 283.559 419.669 282.875 419.474 281.508C419.376 280.043 419.181 278.09 418.888 275.648L439.542 274.184C439.835 270.766 440.03 268.324 440.128 266.859C440.226 265.395 440.226 264.174 440.128 263.197C440.128 262.123 440.079 260.951 439.981 259.682C439.981 258.314 439.981 256.215 439.981 253.383C442.521 252.992 444.425 252.895 445.694 253.09C447.062 253.188 447.989 253.529 448.478 254.115C448.966 254.701 449.161 255.58 449.063 256.752C449.063 257.826 448.917 259.193 448.624 260.854C448.429 262.514 448.233 264.516 448.038 266.859C447.94 269.203 448.038 271.84 448.331 274.77L465.909 274.184V281.361C465.128 281.361 463.907 281.41 462.247 281.508C460.587 281.605 458.78 281.703 456.827 281.801C454.972 281.898 453.214 281.996 451.554 282.094C449.991 282.191 448.819 282.387 448.038 282.68C447.257 286.195 446.427 289.955 445.548 293.959C444.669 297.963 444.083 301.918 443.79 305.824C443.497 309.73 443.595 313.393 444.083 316.811C444.571 320.131 445.792 322.914 447.745 325.16C449.698 327.309 452.481 328.822 456.095 329.701C459.708 330.482 464.493 330.189 470.45 328.822C470.255 330.287 469.669 331.508 468.692 332.484C467.813 333.363 466.739 334.096 465.47 334.682C464.298 335.17 463.028 335.561 461.661 335.854C460.294 336.049 459.073 336.146 457.999 336.146C453.019 336.146 449.063 335.268 446.134 333.51C443.204 331.654 441.007 329.262 439.542 326.332C438.077 323.402 437.149 320.082 436.759 316.371C436.368 312.562 436.222 308.705 436.319 304.799C436.515 300.893 436.808 297.035 437.198 293.227C437.589 289.418 437.784 285.951 437.784 282.826ZM481.437 235.512L485.245 283.559C485.929 282.973 486.808 282.094 487.882 280.922C488.956 279.75 490.226 278.676 491.69 277.699C493.155 276.625 494.767 275.746 496.524 275.062C498.282 274.281 500.187 273.939 502.237 274.037C506.241 274.428 509.415 276.039 511.759 278.871C514.2 281.703 516.007 285.17 517.179 289.271C518.448 293.373 519.278 297.865 519.669 302.748C520.06 307.533 520.157 312.123 519.962 316.518C519.864 320.912 519.62 324.818 519.229 328.236C518.937 331.654 518.692 333.998 518.497 335.268L513.224 334.535C513.224 333.656 513.224 332.289 513.224 330.434C513.321 328.48 513.419 326.234 513.517 323.695C513.614 321.059 513.663 318.324 513.663 315.492C513.663 312.66 513.663 310.023 513.663 307.582C513.761 305.043 513.761 302.797 513.663 300.844C513.663 298.891 513.614 297.523 513.517 296.742C513.614 294.008 513.077 291.371 511.905 288.832C510.733 286.293 509.171 284.389 507.218 283.119C505.265 281.752 502.921 281.312 500.187 281.801C497.452 282.191 494.522 284.096 491.397 287.514C488.663 291.615 486.661 295.668 485.392 299.672C484.122 303.578 483.292 307.484 482.901 311.391C482.511 315.199 482.364 319.154 482.462 323.256C482.56 327.26 482.56 331.508 482.462 336L476.749 335.121C477.042 334.047 477.237 332.094 477.335 329.262C477.53 326.332 477.677 322.865 477.774 318.861C477.872 314.76 477.921 310.219 477.921 305.238C478.019 300.258 478.019 295.131 477.921 289.857C477.921 284.486 477.872 279.115 477.774 273.744C477.677 268.373 477.53 263.246 477.335 258.363C477.237 253.48 477.091 248.988 476.896 244.887C476.798 240.785 476.7 237.416 476.603 234.779L481.437 235.512ZM582.218 310.951C582.218 307.338 582.804 303.334 583.976 298.939C585.147 294.545 586.856 290.492 589.103 286.781C591.349 282.973 594.132 279.799 597.452 277.26C600.772 274.721 604.63 273.451 609.024 273.451C611.271 273.158 613.077 273.402 614.444 274.184C615.812 274.867 616.837 275.99 617.521 277.553C618.302 279.115 618.79 280.922 618.985 282.973C619.278 284.926 619.425 286.977 619.425 289.125C619.522 291.176 619.522 293.129 619.425 294.984C619.425 296.742 619.522 298.207 619.718 299.379H616.056C615.958 298.793 615.763 297.426 615.47 295.277C615.274 293.031 614.884 290.736 614.298 288.393C613.712 286.049 612.882 283.949 611.808 282.094C610.831 280.238 609.415 279.311 607.56 279.311C604.825 279.311 602.237 280.385 599.796 282.533C597.452 284.682 595.401 287.27 593.644 290.297C591.886 293.324 590.47 296.449 589.396 299.672C588.321 302.895 587.784 305.58 587.784 307.729C587.882 310.17 588.224 312.855 588.81 315.785C589.396 318.617 590.323 321.205 591.593 323.549C592.96 325.893 594.718 327.797 596.866 329.262C599.015 330.727 601.651 331.166 604.776 330.58C607.12 330.58 609.366 330.092 611.515 329.115C613.663 328.139 615.763 327.113 617.813 326.039C619.864 324.965 621.915 323.939 623.966 322.963C626.114 321.986 628.36 321.498 630.704 321.498C630.704 324.037 629.776 326.283 627.921 328.236C626.065 330.092 623.771 331.605 621.036 332.777C618.399 333.949 615.567 334.828 612.54 335.414C609.61 336 607.12 336.293 605.069 336.293C601.749 336.293 598.673 335.609 595.841 334.242C593.106 332.875 590.714 331.068 588.663 328.822C586.612 326.479 585.001 323.793 583.829 320.766C582.755 317.641 582.218 314.369 582.218 310.951ZM637.882 309.193C637.882 306.947 638.077 304.359 638.468 301.43C638.858 298.402 639.493 295.375 640.372 292.348C641.251 289.32 642.325 286.342 643.595 283.412C644.962 280.482 646.573 277.895 648.429 275.648C650.284 273.305 652.433 271.449 654.874 270.082C657.315 268.617 660.05 267.885 663.077 267.885C666.202 267.885 669.083 268.959 671.72 271.107C674.454 273.256 676.749 276.039 678.604 279.457C680.558 282.875 682.022 286.684 682.999 290.883C683.976 295.082 684.366 299.184 684.171 303.188C684.171 309.047 683.048 314.271 680.802 318.861C678.556 323.451 675.675 327.162 672.159 329.994C668.741 332.826 665.03 334.73 661.026 335.707C657.12 336.684 653.409 336.439 649.894 334.975C646.476 333.412 643.595 330.531 641.251 326.332C639.005 322.133 637.882 316.42 637.882 309.193ZM643.302 309.779C643.595 315.736 644.62 320.326 646.378 323.549C648.136 326.771 650.235 328.92 652.677 329.994C655.216 330.971 657.95 330.971 660.88 329.994C663.81 329.018 666.544 327.309 669.083 324.867C671.622 322.328 673.771 319.203 675.528 315.492C677.384 311.684 678.409 307.436 678.604 302.748C678.8 299.232 678.507 295.814 677.726 292.494C677.042 289.174 676.017 286.244 674.649 283.705C673.38 281.068 671.769 279.018 669.815 277.553C667.96 275.99 665.812 275.209 663.37 275.209C661.026 275.209 658.927 275.795 657.071 276.967C655.216 278.139 653.507 279.75 651.944 281.801C650.479 283.754 649.21 286 648.136 288.539C647.062 291.078 646.134 293.617 645.353 296.156C644.669 298.695 644.132 301.186 643.741 303.627C643.448 305.971 643.302 308.021 643.302 309.779ZM689.151 314.76C689.151 312.123 689.591 309.242 690.47 306.117C691.349 302.895 692.618 299.965 694.278 297.328C695.938 294.594 697.94 292.348 700.284 290.59C702.628 288.832 705.362 287.953 708.487 287.953C710.831 287.953 712.882 288.197 714.64 288.686C716.495 289.076 718.204 289.809 719.767 290.883C721.427 291.859 722.94 293.08 724.308 294.545C725.772 295.912 727.286 297.523 728.849 299.379L727.97 224.232C730.606 223.256 732.218 222.865 732.804 223.061C733.487 223.256 733.829 224.086 733.829 225.551C733.829 225.746 733.78 226.039 733.683 226.43C733.683 226.82 733.683 227.064 733.683 227.162C733.585 229.018 733.487 231.654 733.39 235.072C733.39 238.49 733.39 242.445 733.39 246.938C733.487 251.43 733.585 256.312 733.683 261.586C733.78 266.762 733.878 272.035 733.976 277.406C734.073 282.68 734.171 287.953 734.269 293.227C734.464 298.402 734.562 303.236 734.562 307.729C734.659 312.221 734.659 316.225 734.562 319.74C734.562 323.158 734.513 325.746 734.415 327.504C733.341 329.75 731.827 331.459 729.874 332.631C728.019 333.803 725.968 334.682 723.722 335.268C721.573 335.756 719.327 336.049 716.983 336.146C714.64 336.244 712.442 336.293 710.392 336.293C703.849 336.293 698.673 334.389 694.864 330.58C691.056 326.674 689.151 321.4 689.151 314.76ZM695.011 310.805C695.011 313.246 695.206 315.688 695.597 318.129C695.987 320.473 696.671 322.572 697.647 324.428C698.624 326.283 699.991 327.797 701.749 328.969C703.507 330.043 705.753 330.58 708.487 330.58C710.147 330.58 712.149 330.58 714.493 330.58C716.837 330.58 719.083 330.336 721.231 329.848C723.38 329.262 725.187 328.383 726.651 327.211C728.116 326.039 728.849 324.379 728.849 322.23C728.849 319.691 728.458 316.811 727.677 313.588C726.993 310.268 725.87 307.143 724.308 304.213C722.843 301.186 720.938 298.646 718.595 296.596C716.349 294.447 713.663 293.373 710.538 293.373C708.487 293.373 706.534 293.91 704.679 294.984C702.823 296.059 701.163 297.426 699.698 299.086C698.331 300.746 697.208 302.602 696.329 304.652C695.45 306.703 695.011 308.754 695.011 310.805ZM741.446 301.576C741.446 298.646 742.081 295.424 743.351 291.908C744.62 288.295 746.329 284.975 748.478 281.947C750.724 278.822 753.214 276.234 755.948 274.184C758.78 272.035 761.71 270.961 764.737 270.961C766.397 270.961 768.009 271.303 769.571 271.986C771.231 272.67 772.794 273.598 774.259 274.77C775.821 275.844 777.188 277.113 778.36 278.578C779.63 279.945 780.606 281.41 781.29 282.973C781.974 284.535 782.315 286.049 782.315 287.514C782.413 288.979 782.022 290.248 781.144 291.322L750.235 297.035C749.845 297.133 749.503 297.621 749.21 298.5C748.917 299.281 748.673 300.307 748.478 301.576C748.282 302.846 748.087 304.262 747.892 305.824C747.794 307.289 747.696 308.754 747.599 310.219C747.501 311.586 747.452 312.855 747.452 314.027C747.452 315.102 747.452 315.932 747.452 316.518C747.452 319.252 748.087 321.498 749.356 323.256C750.724 324.916 752.433 326.186 754.483 327.064C756.534 327.943 758.829 328.529 761.368 328.822C764.005 329.115 766.593 329.262 769.132 329.262C771.671 329.262 774.063 329.164 776.31 328.969C778.556 328.773 780.411 328.676 781.876 328.676C781.876 329.066 781.729 329.506 781.437 329.994C781.144 330.482 780.802 330.971 780.411 331.459C780.021 331.85 779.63 332.24 779.239 332.631C778.849 332.924 778.604 333.119 778.507 333.217C777.726 333.412 776.505 333.705 774.845 334.096C773.282 334.389 771.573 334.682 769.718 334.975C767.96 335.268 766.3 335.512 764.737 335.707C763.175 335.902 762.101 336 761.515 336C758.487 336.586 755.851 336.537 753.604 335.854C751.358 335.17 749.454 333.998 747.892 332.338C746.329 330.678 745.06 328.676 744.083 326.332C743.106 323.891 742.374 321.303 741.886 318.568C741.397 315.834 741.104 313.002 741.007 310.072C741.007 307.143 741.153 304.311 741.446 301.576ZM762.687 276.527C761.808 276.527 760.636 277.016 759.171 277.992C757.804 278.871 756.485 280.043 755.216 281.508C754.044 282.875 753.019 284.389 752.14 286.049C751.358 287.611 751.114 288.979 751.407 290.15C753.946 290.443 756.583 290.395 759.317 290.004C762.052 289.613 764.542 289.027 766.788 288.246C769.034 287.367 770.89 286.391 772.354 285.316C773.819 284.145 774.503 282.973 774.405 281.801C774.405 280.629 773.478 279.604 771.622 278.725C769.864 277.748 766.886 277.016 762.687 276.527Z" fill="white"/>
<g clip-path="url(#clip0_516_95)">
<path d="M408.914 223.494L351.195 207.471L338.333 63.2051H479.667L466.792 207.449L408.914 223.494Z" fill="#264DE4"/>
<path d="M455.768 198.264L466.772 75.001H409V211.23L455.768 198.264Z" fill="#2965F1"/>
<path d="M367.819 128.508L369.405 146.201H409V128.508H367.819Z" fill="#EBEBEB"/>
<path d="M364.633 92.6953L366.241 110.389H409V92.6953H364.633Z" fill="#EBEBEB"/>
<path d="M409 174.46L408.922 174.48L389.217 169.159L387.957 155.048H370.196L372.674 182.829L408.919 192.891L409 192.868V174.46Z" fill="#EBEBEB"/>
<path d="M371.595 24H393.025V32.9617H380.556V41.9234H393.025V50.885H371.595V24Z" fill="white"/>
<path d="M397.311 24H418.741V31.7928H406.273V33.3513H418.741V51.2747H397.311V43.0923H409.779V41.5337H397.311V24Z" fill="white"/>
<path d="M423.027 24H444.457V31.7928H431.989V33.3513H444.457V51.2747H423.027V43.0923H435.495V41.5337H423.027V24Z" fill="white"/>
<path d="M450.067 128.508L453.262 92.6953H408.939V110.389H433.871L432.261 128.508H408.939V146.201H430.727L428.673 169.149L408.939 174.475V192.883L445.212 182.83L445.478 179.841L449.636 133.259L450.067 128.508Z" fill="white"/>
</g>
<g clip-path="url(#clip1_516_95)">
<path d="M212.668 63.2051L199.792 207.449L141.914 223.494L84.1949 207.471L71.3325 63.2051H212.668Z" fill="#E44D26"/>
<path d="M142 211.23L188.768 198.264L199.772 75.001H142V211.23Z" fill="#F16529"/>
<path d="M116.97 110.389H142V92.6953H97.6327L98.0562 97.4423L102.405 146.201H142V128.508H118.587L116.97 110.389Z" fill="#EBEBEB"/>
<path d="M120.957 155.048H103.196L105.674 182.829L141.919 192.891L142 192.868V174.46L141.922 174.48L122.217 169.159L120.957 155.048Z" fill="#EBEBEB"/>
<path d="M84.4824 24H93.4741V32.8837H101.699V24H110.691V50.9022H101.7V41.8937H93.4745V50.9022H84.4828L84.4824 24Z" fill="white"/>
<path d="M122.516 32.9212H114.6V24H139.428V32.9212H131.508V50.9022H122.516L122.516 32.9212Z" fill="white"/>
<path d="M143.368 24H152.744L158.511 33.4526L164.273 24H173.652V50.9022H164.698V37.568L158.511 47.1332H158.357L152.166 37.568V50.9022H143.368V24Z" fill="white"/>
<path d="M178.127 24H187.122V42.0099H199.767V50.9022H178.127V24Z" fill="white"/>
<path d="M141.939 146.201H163.727L161.673 169.149L141.939 174.475V192.883L178.212 182.83L178.478 179.841L182.636 133.259L183.067 128.508H141.939V146.201Z" fill="white"/>
<path d="M141.939 110.346V110.389H184.677L185.032 106.412L185.839 97.4423L186.262 92.6953H141.939V110.346Z" fill="white"/>
</g>
<g clip-path="url(#clip2_516_95)">
<path d="M607.806 207.24L596 64.2676L737 64.5549L724.516 207.24L667.032 223.733L607.806 207.24Z" fill="#E9CA32"/>
<path d="M667.032 209.925V77.8838L725.097 78.0753L714.742 196.212L667.032 209.925Z" fill="#FFDE25"/>
<path d="M660.814 93.5615H645.464V181.445L633.524 179.191V167.361L619.31 165.108V191.585L660.814 202.289V93.5615ZM672.33 93.5615H714.827L711.984 110.406H688.553V138.047H711.984L709.141 193.839L672.33 202.289V184.825L697.202 176.375L698.638 153.277L672.33 157.052V93.5615Z" fill="white"/>
</g>
<path d="M668.903 24H690.364V31.7928H677.878V33.3513H690.364V51.2747H668.903V43.0923H681.389V41.5337H668.903V24Z" fill="white"/>
<rect x="656.085" y="24" width="8.8125" height="27.2" fill="white"/>
<rect x="643.267" y="39.2002" width="8.8125" height="12" fill="white"/>
<rect x="643.267" y="41.5996" width="21.6307" height="9.6" fill="white"/>
</g>
<defs>
<clipPath id="clip0_516_95">
<rect width="200" height="200" fill="white" transform="translate(309 24)"/>
</clipPath>
<clipPath id="clip1_516_95">
<rect width="200" height="200" fill="white" transform="translate(42 24)"/>
</clipPath>
<clipPath id="clip2_516_95">
<rect width="141" height="160" fill="white" transform="translate(596 64)"/>
</clipPath>
</defs>
</svg>
