<svg width="394" height="207" viewBox="0 0 394 207" fill="none" xmlns="http://www.w3.org/2000/svg">
<path fill-rule="evenodd" clip-rule="evenodd" d="M307.83 156.238C287.861 167.113 265.011 176.955 239.956 185.108C134.023 219.576 28.7691 210.791 4.86533 165.487C-4.30129 148.114 -0.17372 127.893 14.3739 107.62L22.8912 109.031C9.5048 127.607 5.67233 146.027 14 161.81C36.0929 203.682 135.406 211.14 235.821 178.467C257.348 171.463 277.177 163.183 294.831 154.084L307.83 156.238ZM385.963 87.3012C394.594 70.8743 395.953 54.8258 388.483 40.6683C364.579 -4.63571 259.325 -13.4202 153.392 21.0476C140.855 25.127 128.87 29.6293 117.522 34.4725L129.315 36.4262C137.817 33.022 146.663 29.8133 155.815 26.8353C256.231 -5.8373 355.544 1.62035 377.637 43.4924C383.96 55.4774 383.272 68.9828 376.713 82.9225C377.57 81.2038 378.332 79.4929 378.998 77.7919L389.509 79.5333C388.514 82.1091 387.329 84.7005 385.963 87.3012Z" fill="#F0B23A"/>
<path d="M64.304 113.424H94.768C97.232 113.424 99.024 113.723 100.144 114.32C101.264 114.843 102.011 115.701 102.384 116.896C102.757 118.091 102.944 119.696 102.944 121.712C102.944 123.653 102.757 125.221 102.384 126.416C102.011 127.611 101.376 128.432 100.48 128.88C99.0613 129.627 97.12 130 94.656 130H54.336C49.1093 130 46.048 128.581 45.152 125.744C44.704 124.549 44.48 122.645 44.48 120.032V57.76C44.48 56.0427 44.5173 54.7733 44.592 53.952C44.7413 53.056 45.1147 52.048 45.712 50.928C46.7573 48.912 49.6693 47.904 54.448 47.904C59.6747 47.904 62.7733 49.2853 63.744 52.048C64.1173 53.3173 64.304 55.2587 64.304 57.872V113.424ZM162.626 93.488C162.626 98.0427 161.469 101.44 159.154 103.68C156.914 105.845 154.413 106.928 151.65 106.928H125.106C125.106 109.019 126.338 110.773 128.802 112.192C131.266 113.611 133.73 114.32 136.194 114.32C140.525 114.32 143.922 113.872 146.386 112.976L147.618 112.528C149.41 111.707 150.903 111.296 152.098 111.296C154.487 111.296 156.541 112.976 158.258 116.336C159.229 118.352 159.714 120.069 159.714 121.488C159.714 128.133 151.762 131.456 135.858 131.456C130.333 131.456 125.405 130.523 121.074 128.656C116.818 126.715 113.495 124.176 111.106 121.04C106.402 114.992 104.05 108.235 104.05 100.768C104.05 91.36 107.074 83.856 113.122 78.256C119.245 72.5813 126.861 69.744 135.97 69.744C146.349 69.744 153.965 73.4027 158.818 80.72C161.357 84.6027 162.626 88.8587 162.626 93.488ZM138.994 96.736C141.831 96.736 143.25 95.5413 143.25 93.152C143.25 91.4347 142.578 90.0533 141.234 89.008C139.965 87.9627 138.098 87.44 135.634 87.44C133.245 87.44 130.855 88.448 128.466 90.464C126.077 92.4053 124.882 94.496 124.882 96.736H138.994ZM208.237 77.248C208.685 73.0667 211.634 70.976 217.085 70.976C219.997 70.976 222.162 71.2 223.581 71.648C225 72.096 225.97 72.88 226.493 74C227.09 75.12 227.426 76.128 227.501 77.024C227.65 77.8453 227.725 79.1147 227.725 80.832V120.032C227.725 121.749 227.65 123.056 227.501 123.952C227.426 124.773 227.128 125.744 226.605 126.864C225.56 128.805 222.984 129.776 218.877 129.776C214.845 129.776 212.12 129.291 210.701 128.32C209.357 127.275 208.573 125.781 208.349 123.84C205.586 127.797 200.957 129.776 194.461 129.776C188.04 129.776 182.066 126.827 176.541 120.928C171.016 115.029 168.253 108.197 168.253 100.432C168.253 92.592 171.016 85.76 176.541 79.936C182.141 74.0373 188.264 71.088 194.909 71.088C197.448 71.088 199.762 71.536 201.853 72.432C203.944 73.328 205.4 74.1867 206.221 75.008C207.042 75.7547 207.714 76.5013 208.237 77.248ZM187.853 100.544C187.853 103.008 188.824 105.248 190.765 107.264C192.706 109.205 195.058 110.176 197.821 110.176C200.584 110.176 202.861 109.168 204.653 107.152C206.52 105.136 207.453 102.933 207.453 100.544C207.453 98.08 206.557 95.8027 204.765 93.712C203.048 91.6213 200.696 90.576 197.709 90.576C194.797 90.576 192.408 91.6213 190.541 93.712C188.749 95.8027 187.853 98.08 187.853 100.544ZM276.748 71.648C278.167 72.096 279.324 72.88 280.22 74C281.191 75.0453 281.676 76.7627 281.676 79.152C281.676 81.5413 280.967 84.1547 279.548 86.992C278.129 89.8293 276.076 91.248 273.388 91.248C272.044 91.248 270.737 90.9493 269.468 90.352C268.273 89.7547 266.668 89.456 264.652 89.456C262.636 89.456 260.732 90.1653 258.94 91.584C257.223 93.0027 256.364 94.72 256.364 96.736V120.256C256.364 121.973 256.289 123.28 256.14 124.176C256.065 124.997 255.729 125.968 255.132 127.088C254.012 129.029 251.1 130 246.396 130C242.812 130 240.236 129.365 238.668 128.096C237.473 127.051 236.801 125.445 236.652 123.28C236.652 122.533 236.652 121.451 236.652 120.032V80.72C236.652 79.0027 236.689 77.7333 236.764 76.912C236.913 76.016 237.249 75.0453 237.772 74C238.817 71.984 241.729 70.976 246.508 70.976C250.988 70.976 253.788 71.8347 254.908 73.552C255.729 74.7467 256.14 75.9787 256.14 77.248C256.513 76.7253 257.036 76.0907 257.708 75.344C258.455 74.5973 259.985 73.5893 262.3 72.32C264.615 71.0507 266.631 70.416 268.348 70.416C270.14 70.416 271.633 70.528 272.828 70.752C274.023 70.9013 275.329 71.2 276.748 71.648ZM320.655 70.976C328.122 70.976 334.319 73.8507 339.247 79.6C344.25 85.2747 346.751 92.2187 346.751 100.432V120.144C346.751 121.861 346.677 123.168 346.527 124.064C346.453 124.885 346.154 125.819 345.631 126.864C344.586 128.88 341.674 129.888 336.895 129.888C331.594 129.888 328.533 128.507 327.711 125.744C327.263 124.475 327.039 122.571 327.039 120.032V100.32C327.039 97.2587 326.143 94.8693 324.351 93.152C322.634 91.4347 320.282 90.576 317.295 90.576C314.383 90.576 311.994 91.472 310.127 93.264C308.335 95.056 307.439 97.408 307.439 100.32V120.144C307.439 121.861 307.365 123.168 307.215 124.064C307.141 124.885 306.805 125.819 306.207 126.864C305.237 128.88 302.362 129.888 297.583 129.888C292.879 129.888 290.005 128.88 288.959 126.864C288.437 125.744 288.101 124.773 287.951 123.952C287.877 123.056 287.839 121.749 287.839 120.032V80.384C287.839 78.7413 287.877 77.5093 287.951 76.688C288.101 75.792 288.474 74.8213 289.071 73.776C290.117 71.9093 292.991 70.976 297.695 70.976C302.25 70.976 305.05 71.8347 306.095 73.552C306.842 74.8213 307.215 76.352 307.215 78.144C307.514 77.6213 308.186 76.8747 309.231 75.904C310.277 74.9333 311.285 74.1493 312.255 73.552C314.794 71.8347 317.594 70.976 320.655 70.976Z" fill="white"/>
</svg>
