<svg width="1000" height="1000" viewBox="0 0 1000 1000" fill="none" xmlns="http://www.w3.org/2000/svg">
<circle cx="500" cy="500" r="500" fill="#092258"/>
<path fill-rule="evenodd" clip-rule="evenodd" d="M746.591 601.598C700.495 622.384 647.749 641.193 589.911 656.774C345.376 722.648 102.41 705.86 47.2311 619.276C25.6767 585.454 35.9647 545.985 71.0825 506.515C70.4401 507.237 69.8061 507.959 69.1803 508.681L96.403 512.415C61.7005 548.547 50.5512 584.372 69.8378 614.635C118.931 691.67 346.638 703.498 578.436 641.055C626.327 628.154 670.646 613.092 710.391 596.633L746.591 601.598ZM935.139 455.002C947.359 428.832 947.282 403.498 932.769 380.724C877.59 294.14 634.624 277.352 390.089 343.226C361.148 351.022 333.482 359.627 307.286 368.883L354.864 375.409C369.722 370.756 384.997 366.307 400.654 362.09C632.452 299.647 860.159 311.475 909.252 388.509C921.526 407.768 921.474 429.278 910.87 451.687C910.872 451.683 910.874 451.679 910.876 451.674L935.139 455.002Z" fill="#F0B23A"/>
<path d="M173.59 526.04H247.03C252.97 526.04 257.29 526.76 259.99 528.2C262.69 529.46 264.49 531.53 265.39 534.41C266.29 537.29 266.74 541.16 266.74 546.02C266.74 550.7 266.29 554.48 265.39 557.36C264.49 560.24 262.96 562.22 260.8 563.3C257.38 565.1 252.7 566 246.76 566H149.56C136.96 566 129.58 562.58 127.42 555.74C126.34 552.86 125.8 548.27 125.8 541.97V391.85C125.8 387.71 125.89 384.65 126.07 382.67C126.43 380.51 127.33 378.08 128.77 375.38C131.29 370.52 138.31 368.09 149.83 368.09C162.43 368.09 169.9 371.42 172.24 378.08C173.14 381.14 173.59 385.82 173.59 392.12V526.04ZM410.616 477.98C410.616 488.96 407.826 497.15 402.246 502.55C396.846 507.77 390.816 510.38 384.156 510.38H320.166C320.166 515.42 323.136 519.65 329.076 523.07C335.016 526.49 340.956 528.2 346.896 528.2C357.336 528.2 365.526 527.12 371.466 524.96L374.436 523.88C378.756 521.9 382.356 520.91 385.236 520.91C390.996 520.91 395.946 524.96 400.086 533.06C402.426 537.92 403.596 542.06 403.596 545.48C403.596 561.5 384.426 569.51 346.086 569.51C332.766 569.51 320.886 567.26 310.446 562.76C300.186 558.08 292.176 551.96 286.416 544.4C275.076 529.82 269.406 513.53 269.406 495.53C269.406 472.85 276.696 454.76 291.276 441.26C306.036 427.58 324.396 420.74 346.356 420.74C371.376 420.74 389.736 429.56 401.436 447.2C407.556 456.56 410.616 466.82 410.616 477.98ZM353.646 485.81C360.486 485.81 363.906 482.93 363.906 477.17C363.906 473.03 362.286 469.7 359.046 467.18C355.986 464.66 351.486 463.4 345.546 463.4C339.786 463.4 334.026 465.83 328.266 470.69C322.506 475.37 319.626 480.41 319.626 485.81H353.646ZM520.572 438.83C521.652 428.75 528.762 423.71 541.902 423.71C548.922 423.71 554.142 424.25 557.562 425.33C560.982 426.41 563.322 428.3 564.582 431C566.022 433.7 566.832 436.13 567.012 438.29C567.372 440.27 567.552 443.33 567.552 447.47V541.97C567.552 546.11 567.372 549.26 567.012 551.42C566.832 553.4 566.112 555.74 564.852 558.44C562.332 563.12 556.122 565.46 546.222 565.46C536.502 565.46 529.932 564.29 526.512 561.95C523.272 559.43 521.382 555.83 520.842 551.15C514.182 560.69 503.022 565.46 487.362 565.46C471.882 565.46 457.482 558.35 444.162 544.13C430.842 529.91 424.182 513.44 424.182 494.72C424.182 475.82 430.842 459.35 444.162 445.31C457.662 431.09 472.422 423.98 488.442 423.98C494.562 423.98 500.142 425.06 505.182 427.22C510.222 429.38 513.732 431.45 515.712 433.43C517.692 435.23 519.312 437.03 520.572 438.83ZM471.432 494.99C471.432 500.93 473.772 506.33 478.452 511.19C483.132 515.87 488.802 518.21 495.462 518.21C502.122 518.21 507.612 515.78 511.932 510.92C516.432 506.06 518.682 500.75 518.682 494.99C518.682 489.05 516.522 483.56 512.202 478.52C508.062 473.48 502.392 470.96 495.192 470.96C488.172 470.96 482.412 473.48 477.912 478.52C473.592 483.56 471.432 489.05 471.432 494.99ZM685.731 425.33C689.151 426.41 691.941 428.3 694.101 431C696.441 433.52 697.611 437.66 697.611 443.42C697.611 449.18 695.901 455.48 692.481 462.32C689.061 469.16 684.111 472.58 677.631 472.58C674.391 472.58 671.241 471.86 668.181 470.42C665.301 468.98 661.431 468.26 656.571 468.26C651.711 468.26 647.121 469.97 642.801 473.39C638.661 476.81 636.591 480.95 636.591 485.81V542.51C636.591 546.65 636.411 549.8 636.051 551.96C635.871 553.94 635.061 556.28 633.621 558.98C630.921 563.66 623.901 566 612.561 566C603.921 566 597.711 564.47 593.931 561.41C591.051 558.89 589.431 555.02 589.071 549.8C589.071 548 589.071 545.39 589.071 541.97V447.2C589.071 443.06 589.161 440 589.341 438.02C589.701 435.86 590.511 433.52 591.771 431C594.291 426.14 601.311 423.71 612.831 423.71C623.631 423.71 630.381 425.78 633.081 429.92C635.061 432.8 636.051 435.77 636.051 438.83C636.951 437.57 638.211 436.04 639.831 434.24C641.631 432.44 645.321 430.01 650.901 426.95C656.481 423.89 661.341 422.36 665.481 422.36C669.801 422.36 673.401 422.63 676.281 423.17C679.161 423.53 682.311 424.25 685.731 425.33ZM791.58 423.71C809.58 423.71 824.52 430.64 836.4 444.5C848.46 458.18 854.49 474.92 854.49 494.72V542.24C854.49 546.38 854.31 549.53 853.95 551.69C853.77 553.67 853.05 555.92 851.79 558.44C849.27 563.3 842.25 565.73 830.73 565.73C817.95 565.73 810.57 562.4 808.59 555.74C807.51 552.68 806.97 548.09 806.97 541.97V494.45C806.97 487.07 804.81 481.31 800.49 477.17C796.35 473.03 790.68 470.96 783.48 470.96C776.46 470.96 770.7 473.12 766.2 477.44C761.88 481.76 759.72 487.43 759.72 494.45V542.24C759.72 546.38 759.54 549.53 759.18 551.69C759 553.67 758.19 555.92 756.75 558.44C754.41 563.3 747.48 565.73 735.96 565.73C724.62 565.73 717.69 563.3 715.17 558.44C713.91 555.74 713.1 553.4 712.74 551.42C712.56 549.26 712.47 546.11 712.47 541.97V446.39C712.47 442.43 712.56 439.46 712.74 437.48C713.1 435.32 714 432.98 715.44 430.46C717.96 425.96 724.89 423.71 736.23 423.71C747.21 423.71 753.96 425.78 756.48 429.92C758.28 432.98 759.18 436.67 759.18 440.99C759.9 439.73 761.52 437.93 764.04 435.59C766.56 433.25 768.99 431.36 771.33 429.92C777.45 425.78 784.2 423.71 791.58 423.71Z" fill="white"/>
</svg>
