<svg width="938" height="394" viewBox="0 0 938 394" fill="none" xmlns="http://www.w3.org/2000/svg">
<path fill-rule="evenodd" clip-rule="evenodd" d="M710.591 298.598C664.495 319.384 611.749 338.193 553.911 353.774C309.376 419.648 66.4103 402.86 11.2311 316.276C-10.3233 282.454 -0.0352993 242.985 35.0825 203.515C34.4401 204.237 33.8061 204.959 33.1803 205.681L60.403 209.415C25.7006 245.547 14.5512 281.372 33.8378 311.635C82.9309 388.67 310.638 400.498 542.436 338.055C590.327 325.154 634.646 310.092 674.391 293.633L710.591 298.598ZM899.139 152.002C911.359 125.832 911.282 100.498 896.769 77.7243C841.59 -8.85967 598.624 -25.6483 354.089 40.2258C325.148 48.0221 297.482 56.6269 271.286 65.8831L318.864 72.4091C333.722 67.7561 348.997 63.3074 364.654 59.0896C596.452 -3.35345 824.159 8.47492 873.252 85.509C885.526 104.768 885.474 126.278 874.87 148.687C874.872 148.683 874.874 148.679 874.876 148.674L899.139 152.002Z" fill="#F0B23A"/>
<path d="M137.59 223.04H211.03C216.97 223.04 221.29 223.76 223.99 225.2C226.69 226.46 228.49 228.53 229.39 231.41C230.29 234.29 230.74 238.16 230.74 243.02C230.74 247.7 230.29 251.48 229.39 254.36C228.49 257.24 226.96 259.22 224.8 260.3C221.38 262.1 216.7 263 210.76 263H113.56C100.96 263 93.58 259.58 91.42 252.74C90.34 249.86 89.8 245.27 89.8 238.97V88.85C89.8 84.71 89.89 81.65 90.07 79.67C90.43 77.51 91.33 75.08 92.77 72.38C95.29 67.52 102.31 65.09 113.83 65.09C126.43 65.09 133.9 68.42 136.24 75.08C137.14 78.14 137.59 82.82 137.59 89.12V223.04ZM374.616 174.98C374.616 185.96 371.826 194.15 366.246 199.55C360.846 204.77 354.816 207.38 348.156 207.38H284.166C284.166 212.42 287.136 216.65 293.076 220.07C299.016 223.49 304.956 225.2 310.896 225.2C321.336 225.2 329.526 224.12 335.466 221.96L338.436 220.88C342.756 218.9 346.356 217.91 349.236 217.91C354.996 217.91 359.946 221.96 364.086 230.06C366.426 234.92 367.596 239.06 367.596 242.48C367.596 258.5 348.426 266.51 310.086 266.51C296.766 266.51 284.886 264.26 274.446 259.76C264.186 255.08 256.176 248.96 250.416 241.4C239.076 226.82 233.406 210.53 233.406 192.53C233.406 169.85 240.696 151.76 255.276 138.26C270.036 124.58 288.396 117.74 310.356 117.74C335.376 117.74 353.736 126.56 365.436 144.2C371.556 153.56 374.616 163.82 374.616 174.98ZM317.646 182.81C324.486 182.81 327.906 179.93 327.906 174.17C327.906 170.03 326.286 166.7 323.046 164.18C319.986 161.66 315.486 160.4 309.546 160.4C303.786 160.4 298.026 162.83 292.266 167.69C286.506 172.37 283.626 177.41 283.626 182.81H317.646ZM484.572 135.83C485.652 125.75 492.762 120.71 505.902 120.71C512.922 120.71 518.142 121.25 521.562 122.33C524.982 123.41 527.322 125.3 528.582 128C530.022 130.7 530.832 133.13 531.012 135.29C531.372 137.27 531.552 140.33 531.552 144.47V238.97C531.552 243.11 531.372 246.26 531.012 248.42C530.832 250.4 530.112 252.74 528.852 255.44C526.332 260.12 520.122 262.46 510.222 262.46C500.502 262.46 493.932 261.29 490.512 258.95C487.272 256.43 485.382 252.83 484.842 248.15C478.182 257.69 467.022 262.46 451.362 262.46C435.882 262.46 421.482 255.35 408.162 241.13C394.842 226.91 388.182 210.44 388.182 191.72C388.182 172.82 394.842 156.35 408.162 142.31C421.662 128.09 436.422 120.98 452.442 120.98C458.562 120.98 464.142 122.06 469.182 124.22C474.222 126.38 477.732 128.45 479.712 130.43C481.692 132.23 483.312 134.03 484.572 135.83ZM435.432 191.99C435.432 197.93 437.772 203.33 442.452 208.19C447.132 212.87 452.802 215.21 459.462 215.21C466.122 215.21 471.612 212.78 475.932 207.92C480.432 203.06 482.682 197.75 482.682 191.99C482.682 186.05 480.522 180.56 476.202 175.52C472.062 170.48 466.392 167.96 459.192 167.96C452.172 167.96 446.412 170.48 441.912 175.52C437.592 180.56 435.432 186.05 435.432 191.99ZM649.731 122.33C653.151 123.41 655.941 125.3 658.101 128C660.441 130.52 661.611 134.66 661.611 140.42C661.611 146.18 659.901 152.48 656.481 159.32C653.061 166.16 648.111 169.58 641.631 169.58C638.391 169.58 635.241 168.86 632.181 167.42C629.301 165.98 625.431 165.26 620.571 165.26C615.711 165.26 611.121 166.97 606.801 170.39C602.661 173.81 600.591 177.95 600.591 182.81V239.51C600.591 243.65 600.411 246.8 600.051 248.96C599.871 250.94 599.061 253.28 597.621 255.98C594.921 260.66 587.901 263 576.561 263C567.921 263 561.711 261.47 557.931 258.41C555.051 255.89 553.431 252.02 553.071 246.8C553.071 245 553.071 242.39 553.071 238.97V144.2C553.071 140.06 553.161 137 553.341 135.02C553.701 132.86 554.511 130.52 555.771 128C558.291 123.14 565.311 120.71 576.831 120.71C587.631 120.71 594.381 122.78 597.081 126.92C599.061 129.8 600.051 132.77 600.051 135.83C600.951 134.57 602.211 133.04 603.831 131.24C605.631 129.44 609.321 127.01 614.901 123.95C620.481 120.89 625.341 119.36 629.481 119.36C633.801 119.36 637.401 119.63 640.281 120.17C643.161 120.53 646.311 121.25 649.731 122.33ZM755.58 120.71C773.58 120.71 788.52 127.64 800.4 141.5C812.46 155.18 818.49 171.92 818.49 191.72V239.24C818.49 243.38 818.31 246.53 817.95 248.69C817.77 250.67 817.05 252.92 815.79 255.44C813.27 260.3 806.25 262.73 794.73 262.73C781.95 262.73 774.57 259.4 772.59 252.74C771.51 249.68 770.97 245.09 770.97 238.97V191.45C770.97 184.07 768.81 178.31 764.49 174.17C760.35 170.03 754.68 167.96 747.48 167.96C740.46 167.96 734.7 170.12 730.2 174.44C725.88 178.76 723.72 184.43 723.72 191.45V239.24C723.72 243.38 723.54 246.53 723.18 248.69C723 250.67 722.19 252.92 720.75 255.44C718.41 260.3 711.48 262.73 699.96 262.73C688.62 262.73 681.69 260.3 679.17 255.44C677.91 252.74 677.1 250.4 676.74 248.42C676.56 246.26 676.47 243.11 676.47 238.97V143.39C676.47 139.43 676.56 136.46 676.74 134.48C677.1 132.32 678 129.98 679.44 127.46C681.96 122.96 688.89 120.71 700.23 120.71C711.21 120.71 717.96 122.78 720.48 126.92C722.28 129.98 723.18 133.67 723.18 137.99C723.9 136.73 725.52 134.93 728.04 132.59C730.56 130.25 732.99 128.36 735.33 126.92C741.45 122.78 748.2 120.71 755.58 120.71Z" fill="white"/>
</svg>
